<mxfile host="65bd71144e">
    <diagram id="ZVl_wyu_fpvA4I5iy3IS" name="ページ1">
        <mxGraphModel dx="471" dy="470" grid="1" gridSize="10" guides="1" tooltips="1" connect="1" arrows="1" fold="1" page="1" pageScale="1" pageWidth="1169" pageHeight="827" background="#ffffff" math="0" shadow="0">
            <root>
                <mxCell id="0"/>
                <mxCell id="1" parent="0"/>
                <mxCell id="4" value="Text" style="text;html=1;strokeColor=none;fillColor=none;align=center;verticalAlign=middle;whiteSpace=wrap;rounded=0;" vertex="1" parent="1">
                    <mxGeometry x="250" y="60" width="60" height="30" as="geometry"/>
                </mxCell>
                <mxCell id="8" value="" style="edgeStyle=none;html=1;fontSize=10;fontColor=#1A1A1A;" edge="1" parent="1" target="4">
                    <mxGeometry relative="1" as="geometry">
                        <mxPoint x="195" y="52.82608695652175" as="sourcePoint"/>
                    </mxGeometry>
                </mxCell>
                <mxCell id="115" style="edgeStyle=none;html=1;exitX=1;exitY=1;exitDx=0;exitDy=0;fontFamily=Helvetica;fontSize=12;fontColor=#1A1A1A;" edge="1" parent="1" source="53">
                    <mxGeometry relative="1" as="geometry">
                        <mxPoint x="290" y="240" as="targetPoint"/>
                    </mxGeometry>
                </mxCell>
                <mxCell id="53" value="users" style="shape=table;startSize=30;container=1;collapsible=1;childLayout=tableLayout;fixedRows=1;rowLines=0;fontStyle=1;align=center;resizeLast=1;labelBackgroundColor=#CCCCCC;labelBorderColor=#1A1A1A;fontFamily=Helvetica;fontSize=12;fontColor=#1A1A1A;strokeColor=#666666;fillColor=#f5f5f5;html=1;" vertex="1" parent="1">
                    <mxGeometry x="110" y="35" width="180" height="195" as="geometry">
                        <mxRectangle x="420" y="292.5" width="60" height="30" as="alternateBounds"/>
                    </mxGeometry>
                </mxCell>
                <mxCell id="54" value="" style="shape=partialRectangle;collapsible=0;dropTarget=0;pointerEvents=0;fillColor=none;top=0;left=0;bottom=1;right=0;points=[[0,0.5],[1,0.5]];portConstraint=eastwest;labelBackgroundColor=#CCCCCC;labelBorderColor=#1A1A1A;fontFamily=Helvetica;fontSize=12;fontColor=#1A1A1A;strokeColor=#666666;html=1;" vertex="1" parent="53">
                    <mxGeometry y="30" width="180" height="30" as="geometry"/>
                </mxCell>
                <mxCell id="55" value="PK" style="shape=partialRectangle;connectable=0;fillColor=none;top=0;left=0;bottom=0;right=0;fontStyle=1;overflow=hidden;labelBackgroundColor=#CCCCCC;labelBorderColor=#1A1A1A;fontFamily=Helvetica;fontSize=12;fontColor=#1A1A1A;strokeColor=#666666;html=1;" vertex="1" parent="54">
                    <mxGeometry width="20" height="30" as="geometry">
                        <mxRectangle width="20" height="30" as="alternateBounds"/>
                    </mxGeometry>
                </mxCell>
                <mxCell id="56" value="id" style="shape=partialRectangle;connectable=0;fillColor=none;top=0;left=0;bottom=0;right=0;align=left;spacingLeft=6;fontStyle=5;overflow=hidden;labelBackgroundColor=#CCCCCC;labelBorderColor=#1A1A1A;fontFamily=Helvetica;fontSize=12;fontColor=#1A1A1A;strokeColor=#666666;html=1;" vertex="1" parent="54">
                    <mxGeometry x="20" width="160" height="30" as="geometry">
                        <mxRectangle width="160" height="30" as="alternateBounds"/>
                    </mxGeometry>
                </mxCell>
                <mxCell id="57" value="" style="shape=partialRectangle;collapsible=0;dropTarget=0;pointerEvents=0;fillColor=none;top=0;left=0;bottom=0;right=0;points=[[0,0.5],[1,0.5]];portConstraint=eastwest;labelBackgroundColor=#CCCCCC;labelBorderColor=#1A1A1A;fontFamily=Helvetica;fontSize=12;fontColor=#1A1A1A;strokeColor=#666666;html=1;" vertex="1" parent="53">
                    <mxGeometry y="60" width="180" height="30" as="geometry"/>
                </mxCell>
                <mxCell id="58" value="" style="shape=partialRectangle;connectable=0;fillColor=none;top=0;left=0;bottom=0;right=0;editable=1;overflow=hidden;labelBackgroundColor=#CCCCCC;labelBorderColor=#1A1A1A;fontFamily=Helvetica;fontSize=12;fontColor=#1A1A1A;strokeColor=#666666;html=1;" vertex="1" parent="57">
                    <mxGeometry width="20" height="30" as="geometry">
                        <mxRectangle width="20" height="30" as="alternateBounds"/>
                    </mxGeometry>
                </mxCell>
                <mxCell id="59" value="name" style="shape=partialRectangle;connectable=0;fillColor=none;top=0;left=0;bottom=0;right=0;align=left;spacingLeft=6;overflow=hidden;labelBackgroundColor=#CCCCCC;labelBorderColor=#1A1A1A;fontFamily=Helvetica;fontSize=12;fontColor=#1A1A1A;strokeColor=#666666;html=1;" vertex="1" parent="57">
                    <mxGeometry x="20" width="160" height="30" as="geometry">
                        <mxRectangle width="160" height="30" as="alternateBounds"/>
                    </mxGeometry>
                </mxCell>
                <mxCell id="60" value="" style="shape=partialRectangle;collapsible=0;dropTarget=0;pointerEvents=0;fillColor=none;top=0;left=0;bottom=0;right=0;points=[[0,0.5],[1,0.5]];portConstraint=eastwest;labelBackgroundColor=#CCCCCC;labelBorderColor=#1A1A1A;fontFamily=Helvetica;fontSize=12;fontColor=#1A1A1A;strokeColor=#666666;html=1;" vertex="1" parent="53">
                    <mxGeometry y="90" width="180" height="30" as="geometry"/>
                </mxCell>
                <mxCell id="61" value="" style="shape=partialRectangle;connectable=0;fillColor=none;top=0;left=0;bottom=0;right=0;editable=1;overflow=hidden;labelBackgroundColor=#CCCCCC;labelBorderColor=#1A1A1A;fontFamily=Helvetica;fontSize=12;fontColor=#1A1A1A;strokeColor=#666666;html=1;" vertex="1" parent="60">
                    <mxGeometry width="20" height="30" as="geometry">
                        <mxRectangle width="20" height="30" as="alternateBounds"/>
                    </mxGeometry>
                </mxCell>
                <mxCell id="62" value="email" style="shape=partialRectangle;connectable=0;fillColor=none;top=0;left=0;bottom=0;right=0;align=left;spacingLeft=6;overflow=hidden;labelBackgroundColor=#CCCCCC;labelBorderColor=#1A1A1A;fontFamily=Helvetica;fontSize=12;fontColor=#1A1A1A;strokeColor=#666666;html=1;" vertex="1" parent="60">
                    <mxGeometry x="20" width="160" height="30" as="geometry">
                        <mxRectangle width="160" height="30" as="alternateBounds"/>
                    </mxGeometry>
                </mxCell>
                <mxCell id="63" value="" style="shape=partialRectangle;collapsible=0;dropTarget=0;pointerEvents=0;fillColor=none;top=0;left=0;bottom=0;right=0;points=[[0,0.5],[1,0.5]];portConstraint=eastwest;labelBackgroundColor=#CCCCCC;labelBorderColor=#1A1A1A;fontFamily=Helvetica;fontSize=12;fontColor=#1A1A1A;strokeColor=#666666;html=1;" vertex="1" parent="53">
                    <mxGeometry y="120" width="180" height="30" as="geometry"/>
                </mxCell>
                <mxCell id="64" value="" style="shape=partialRectangle;connectable=0;fillColor=none;top=0;left=0;bottom=0;right=0;editable=1;overflow=hidden;labelBackgroundColor=#CCCCCC;labelBorderColor=#1A1A1A;fontFamily=Helvetica;fontSize=12;fontColor=#1A1A1A;strokeColor=#666666;html=1;" vertex="1" parent="63">
                    <mxGeometry width="20" height="30" as="geometry">
                        <mxRectangle width="20" height="30" as="alternateBounds"/>
                    </mxGeometry>
                </mxCell>
                <mxCell id="65" value="password" style="shape=partialRectangle;connectable=0;fillColor=none;top=0;left=0;bottom=0;right=0;align=left;spacingLeft=6;overflow=hidden;labelBackgroundColor=#CCCCCC;labelBorderColor=#1A1A1A;fontFamily=Helvetica;fontSize=12;fontColor=#1A1A1A;strokeColor=#666666;html=1;" vertex="1" parent="63">
                    <mxGeometry x="20" width="160" height="30" as="geometry">
                        <mxRectangle width="160" height="30" as="alternateBounds"/>
                    </mxGeometry>
                </mxCell>
                <mxCell id="66" value="classes" style="shape=table;startSize=30;container=1;collapsible=1;childLayout=tableLayout;fixedRows=1;rowLines=0;fontStyle=1;align=center;resizeLast=1;labelBackgroundColor=#CCCCCC;labelBorderColor=#1A1A1A;fontFamily=Helvetica;fontSize=12;fontColor=#1A1A1A;strokeColor=#666666;fillColor=#f5f5f5;html=1;" vertex="1" parent="1">
                    <mxGeometry x="380" y="48.75" width="180" height="152.5" as="geometry"/>
                </mxCell>
                <mxCell id="67" value="" style="shape=partialRectangle;collapsible=0;dropTarget=0;pointerEvents=0;fillColor=none;top=0;left=0;bottom=1;right=0;points=[[0,0.5],[1,0.5]];portConstraint=eastwest;labelBackgroundColor=#CCCCCC;labelBorderColor=#1A1A1A;fontFamily=Helvetica;fontSize=12;fontColor=#1A1A1A;strokeColor=#666666;html=1;" vertex="1" parent="66">
                    <mxGeometry y="30" width="180" height="30" as="geometry"/>
                </mxCell>
                <mxCell id="68" value="PK" style="shape=partialRectangle;connectable=0;fillColor=none;top=0;left=0;bottom=0;right=0;fontStyle=1;overflow=hidden;labelBackgroundColor=#CCCCCC;labelBorderColor=#1A1A1A;fontFamily=Helvetica;fontSize=12;fontColor=#1A1A1A;strokeColor=#666666;html=1;" vertex="1" parent="67">
                    <mxGeometry width="30" height="30" as="geometry">
                        <mxRectangle width="30" height="30" as="alternateBounds"/>
                    </mxGeometry>
                </mxCell>
                <mxCell id="69" value="class_id" style="shape=partialRectangle;connectable=0;fillColor=none;top=0;left=0;bottom=0;right=0;align=left;spacingLeft=6;fontStyle=5;overflow=hidden;labelBackgroundColor=#CCCCCC;labelBorderColor=#1A1A1A;fontFamily=Helvetica;fontSize=12;fontColor=#1A1A1A;strokeColor=#666666;html=1;" vertex="1" parent="67">
                    <mxGeometry x="30" width="150" height="30" as="geometry">
                        <mxRectangle width="150" height="30" as="alternateBounds"/>
                    </mxGeometry>
                </mxCell>
                <mxCell id="70" value="" style="shape=partialRectangle;collapsible=0;dropTarget=0;pointerEvents=0;fillColor=none;top=0;left=0;bottom=0;right=0;points=[[0,0.5],[1,0.5]];portConstraint=eastwest;labelBackgroundColor=#CCCCCC;labelBorderColor=#1A1A1A;fontFamily=Helvetica;fontSize=12;fontColor=#1A1A1A;strokeColor=#666666;html=1;" vertex="1" parent="66">
                    <mxGeometry y="60" width="180" height="30" as="geometry"/>
                </mxCell>
                <mxCell id="71" value="" style="shape=partialRectangle;connectable=0;fillColor=none;top=0;left=0;bottom=0;right=0;editable=1;overflow=hidden;labelBackgroundColor=#CCCCCC;labelBorderColor=#1A1A1A;fontFamily=Helvetica;fontSize=12;fontColor=#1A1A1A;strokeColor=#666666;html=1;" vertex="1" parent="70">
                    <mxGeometry width="30" height="30" as="geometry">
                        <mxRectangle width="30" height="30" as="alternateBounds"/>
                    </mxGeometry>
                </mxCell>
                <mxCell id="72" value="class_name" style="shape=partialRectangle;connectable=0;fillColor=none;top=0;left=0;bottom=0;right=0;align=left;spacingLeft=6;overflow=hidden;labelBackgroundColor=#CCCCCC;labelBorderColor=#1A1A1A;fontFamily=Helvetica;fontSize=12;fontColor=#1A1A1A;strokeColor=#666666;html=1;" vertex="1" parent="70">
                    <mxGeometry x="30" width="150" height="30" as="geometry">
                        <mxRectangle width="150" height="30" as="alternateBounds"/>
                    </mxGeometry>
                </mxCell>
                <mxCell id="76" value="" style="shape=partialRectangle;collapsible=0;dropTarget=0;pointerEvents=0;fillColor=none;top=0;left=0;bottom=0;right=0;points=[[0,0.5],[1,0.5]];portConstraint=eastwest;labelBackgroundColor=#CCCCCC;labelBorderColor=#1A1A1A;fontFamily=Helvetica;fontSize=12;fontColor=#1A1A1A;strokeColor=#666666;html=1;" vertex="1" parent="66">
                    <mxGeometry y="90" width="180" height="30" as="geometry"/>
                </mxCell>
                <mxCell id="77" value="" style="shape=partialRectangle;connectable=0;fillColor=none;top=0;left=0;bottom=0;right=0;editable=1;overflow=hidden;labelBackgroundColor=#CCCCCC;labelBorderColor=#1A1A1A;fontFamily=Helvetica;fontSize=12;fontColor=#1A1A1A;strokeColor=#666666;html=1;" vertex="1" parent="76">
                    <mxGeometry width="30" height="30" as="geometry">
                        <mxRectangle width="30" height="30" as="alternateBounds"/>
                    </mxGeometry>
                </mxCell>
                <mxCell id="78" value="Row 3" style="shape=partialRectangle;connectable=0;fillColor=none;top=0;left=0;bottom=0;right=0;align=left;spacingLeft=6;overflow=hidden;labelBackgroundColor=#CCCCCC;labelBorderColor=#1A1A1A;fontFamily=Helvetica;fontSize=12;fontColor=#1A1A1A;strokeColor=#666666;html=1;" vertex="1" parent="76">
                    <mxGeometry x="30" width="150" height="30" as="geometry">
                        <mxRectangle width="150" height="30" as="alternateBounds"/>
                    </mxGeometry>
                </mxCell>
                <mxCell id="73" value="" style="shape=partialRectangle;collapsible=0;dropTarget=0;pointerEvents=0;fillColor=none;top=0;left=0;bottom=0;right=0;points=[[0,0.5],[1,0.5]];portConstraint=eastwest;labelBackgroundColor=#CCCCCC;labelBorderColor=#1A1A1A;fontFamily=Helvetica;fontSize=12;fontColor=#1A1A1A;strokeColor=#666666;html=1;" vertex="1" parent="66">
                    <mxGeometry y="120" width="180" height="25" as="geometry"/>
                </mxCell>
                <mxCell id="74" value="" style="shape=partialRectangle;connectable=0;fillColor=none;top=0;left=0;bottom=0;right=0;editable=1;overflow=hidden;labelBackgroundColor=#CCCCCC;labelBorderColor=#1A1A1A;fontFamily=Helvetica;fontSize=12;fontColor=#1A1A1A;strokeColor=#666666;html=1;" vertex="1" parent="73">
                    <mxGeometry width="30" height="25" as="geometry">
                        <mxRectangle width="30" height="25" as="alternateBounds"/>
                    </mxGeometry>
                </mxCell>
                <mxCell id="75" value="" style="shape=partialRectangle;connectable=0;fillColor=none;top=0;left=0;bottom=0;right=0;align=left;spacingLeft=6;overflow=hidden;labelBackgroundColor=#CCCCCC;labelBorderColor=#1A1A1A;fontFamily=Helvetica;fontSize=12;fontColor=#1A1A1A;strokeColor=#666666;html=1;" vertex="1" parent="73">
                    <mxGeometry x="30" width="150" height="25" as="geometry">
                        <mxRectangle width="150" height="25" as="alternateBounds"/>
                    </mxGeometry>
                </mxCell>
                <mxCell id="120" style="edgeStyle=none;html=1;exitX=0.5;exitY=1;exitDx=0;exitDy=0;entryX=0.496;entryY=1.223;entryDx=0;entryDy=0;entryPerimeter=0;fontFamily=Helvetica;fontSize=12;fontColor=#1A1A1A;" edge="1" parent="66" source="66" target="73">
                    <mxGeometry relative="1" as="geometry"/>
                </mxCell>
                <mxCell id="79" value="kids" style="shape=table;startSize=30;container=1;collapsible=1;childLayout=tableLayout;fixedRows=1;rowLines=0;fontStyle=1;align=center;resizeLast=1;labelBackgroundColor=#CCCCCC;labelBorderColor=#1A1A1A;fontFamily=Helvetica;fontSize=12;fontColor=#1A1A1A;strokeColor=#666666;fillColor=#f5f5f5;html=1;" vertex="1" parent="1">
                    <mxGeometry x="380" y="295" width="180" height="260" as="geometry"/>
                </mxCell>
                <mxCell id="80" value="" style="shape=partialRectangle;collapsible=0;dropTarget=0;pointerEvents=0;fillColor=none;top=0;left=0;bottom=1;right=0;points=[[0,0.5],[1,0.5]];portConstraint=eastwest;labelBackgroundColor=#CCCCCC;labelBorderColor=#1A1A1A;fontFamily=Helvetica;fontSize=12;fontColor=#1A1A1A;strokeColor=#666666;html=1;" vertex="1" parent="79">
                    <mxGeometry y="30" width="180" height="30" as="geometry"/>
                </mxCell>
                <mxCell id="81" value="PK" style="shape=partialRectangle;connectable=0;fillColor=none;top=0;left=0;bottom=0;right=0;fontStyle=1;overflow=hidden;labelBackgroundColor=#CCCCCC;labelBorderColor=#1A1A1A;fontFamily=Helvetica;fontSize=12;fontColor=#1A1A1A;strokeColor=#666666;html=1;" vertex="1" parent="80">
                    <mxGeometry width="30" height="30" as="geometry">
                        <mxRectangle width="30" height="30" as="alternateBounds"/>
                    </mxGeometry>
                </mxCell>
                <mxCell id="82" value="kid_id" style="shape=partialRectangle;connectable=0;fillColor=none;top=0;left=0;bottom=0;right=0;align=left;spacingLeft=6;fontStyle=5;overflow=hidden;labelBackgroundColor=#CCCCCC;labelBorderColor=#1A1A1A;fontFamily=Helvetica;fontSize=12;fontColor=#1A1A1A;strokeColor=#666666;html=1;" vertex="1" parent="80">
                    <mxGeometry x="30" width="150" height="30" as="geometry">
                        <mxRectangle width="150" height="30" as="alternateBounds"/>
                    </mxGeometry>
                </mxCell>
                <mxCell id="83" value="" style="shape=partialRectangle;collapsible=0;dropTarget=0;pointerEvents=0;fillColor=none;top=0;left=0;bottom=0;right=0;points=[[0,0.5],[1,0.5]];portConstraint=eastwest;labelBackgroundColor=#CCCCCC;labelBorderColor=#1A1A1A;fontFamily=Helvetica;fontSize=12;fontColor=#1A1A1A;strokeColor=#666666;html=1;" vertex="1" parent="79">
                    <mxGeometry y="60" width="180" height="130" as="geometry"/>
                </mxCell>
                <mxCell id="84" value="" style="shape=partialRectangle;connectable=0;fillColor=none;top=0;left=0;bottom=0;right=0;editable=1;overflow=hidden;labelBackgroundColor=#CCCCCC;labelBorderColor=#1A1A1A;fontFamily=Helvetica;fontSize=12;fontColor=#1A1A1A;strokeColor=#666666;html=1;" vertex="1" parent="83">
                    <mxGeometry width="30" height="130" as="geometry">
                        <mxRectangle width="30" height="130" as="alternateBounds"/>
                    </mxGeometry>
                </mxCell>
                <mxCell id="85" value="kid_name" style="shape=partialRectangle;connectable=0;fillColor=none;top=0;left=0;bottom=0;right=0;align=left;spacingLeft=6;overflow=hidden;labelBackgroundColor=#CCCCCC;labelBorderColor=#1A1A1A;fontFamily=Helvetica;fontSize=12;fontColor=#1A1A1A;strokeColor=#666666;html=1;" vertex="1" parent="83">
                    <mxGeometry x="30" width="150" height="130" as="geometry">
                        <mxRectangle width="150" height="130" as="alternateBounds"/>
                    </mxGeometry>
                </mxCell>
                <mxCell id="86" value="" style="shape=partialRectangle;collapsible=0;dropTarget=0;pointerEvents=0;fillColor=none;top=0;left=0;bottom=0;right=0;points=[[0,0.5],[1,0.5]];portConstraint=eastwest;labelBackgroundColor=#CCCCCC;labelBorderColor=#1A1A1A;fontFamily=Helvetica;fontSize=12;fontColor=#1A1A1A;strokeColor=#666666;html=1;" vertex="1" parent="79">
                    <mxGeometry y="190" width="180" height="30" as="geometry"/>
                </mxCell>
                <mxCell id="87" value="" style="shape=partialRectangle;connectable=0;fillColor=none;top=0;left=0;bottom=0;right=0;editable=1;overflow=hidden;labelBackgroundColor=#CCCCCC;labelBorderColor=#1A1A1A;fontFamily=Helvetica;fontSize=12;fontColor=#1A1A1A;strokeColor=#666666;html=1;" vertex="1" parent="86">
                    <mxGeometry width="30" height="30" as="geometry">
                        <mxRectangle width="30" height="30" as="alternateBounds"/>
                    </mxGeometry>
                </mxCell>
                <mxCell id="88" value="class_id" style="shape=partialRectangle;connectable=0;fillColor=none;top=0;left=0;bottom=0;right=0;align=left;spacingLeft=6;overflow=hidden;labelBackgroundColor=#CCCCCC;labelBorderColor=#1A1A1A;fontFamily=Helvetica;fontSize=12;fontColor=#1A1A1A;strokeColor=#666666;html=1;" vertex="1" parent="86">
                    <mxGeometry x="30" width="150" height="30" as="geometry">
                        <mxRectangle width="150" height="30" as="alternateBounds"/>
                    </mxGeometry>
                </mxCell>
                <mxCell id="89" value="" style="shape=partialRectangle;collapsible=0;dropTarget=0;pointerEvents=0;fillColor=none;top=0;left=0;bottom=0;right=0;points=[[0,0.5],[1,0.5]];portConstraint=eastwest;labelBackgroundColor=#CCCCCC;labelBorderColor=#1A1A1A;fontFamily=Helvetica;fontSize=12;fontColor=#1A1A1A;strokeColor=#666666;html=1;" vertex="1" parent="79">
                    <mxGeometry y="220" width="180" height="30" as="geometry"/>
                </mxCell>
                <mxCell id="90" value="" style="shape=partialRectangle;connectable=0;fillColor=none;top=0;left=0;bottom=0;right=0;editable=1;overflow=hidden;labelBackgroundColor=#CCCCCC;labelBorderColor=#1A1A1A;fontFamily=Helvetica;fontSize=12;fontColor=#1A1A1A;strokeColor=#666666;html=1;" vertex="1" parent="89">
                    <mxGeometry width="30" height="30" as="geometry">
                        <mxRectangle width="30" height="30" as="alternateBounds"/>
                    </mxGeometry>
                </mxCell>
                <mxCell id="91" value="Row 3" style="shape=partialRectangle;connectable=0;fillColor=none;top=0;left=0;bottom=0;right=0;align=left;spacingLeft=6;overflow=hidden;labelBackgroundColor=#CCCCCC;labelBorderColor=#1A1A1A;fontFamily=Helvetica;fontSize=12;fontColor=#1A1A1A;strokeColor=#666666;html=1;" vertex="1" parent="89">
                    <mxGeometry x="30" width="150" height="30" as="geometry">
                        <mxRectangle width="150" height="30" as="alternateBounds"/>
                    </mxGeometry>
                </mxCell>
                <mxCell id="93" value="user_id" style="text;strokeColor=none;fillColor=none;spacingLeft=4;spacingRight=4;overflow=hidden;rotatable=0;points=[[0,0.5],[1,0.5]];portConstraint=eastwest;fontSize=12;labelBackgroundColor=#CCCCCC;labelBorderColor=#1A1A1A;fontFamily=Helvetica;fontColor=#1A1A1A;html=1;" vertex="1" parent="1">
                    <mxGeometry x="410" y="380" width="70" height="30" as="geometry"/>
                </mxCell>
                <mxCell id="107" style="edgeStyle=none;html=1;exitX=1;exitY=1;exitDx=0;exitDy=0;fontFamily=Helvetica;fontSize=12;fontColor=#1A1A1A;" edge="1" parent="1" source="94">
                    <mxGeometry relative="1" as="geometry">
                        <mxPoint x="260" y="460" as="targetPoint"/>
                    </mxGeometry>
                </mxCell>
                <mxCell id="108" style="edgeStyle=none;html=1;exitX=0.5;exitY=1;exitDx=0;exitDy=0;fontFamily=Helvetica;fontSize=12;fontColor=#1A1A1A;" edge="1" parent="1" source="94">
                    <mxGeometry relative="1" as="geometry">
                        <mxPoint x="170" y="450" as="targetPoint"/>
                    </mxGeometry>
                </mxCell>
                <mxCell id="111" value="" style="edgeStyle=none;html=1;fontFamily=Helvetica;fontSize=12;fontColor=#1A1A1A;" edge="1" parent="1">
                    <mxGeometry relative="1" as="geometry">
                        <mxPoint x="160" y="438.9473684210526" as="sourcePoint"/>
                        <mxPoint x="270" y="433.1578947368421" as="targetPoint"/>
                    </mxGeometry>
                </mxCell>
                <mxCell id="94" value="comments" style="shape=table;startSize=30;container=1;collapsible=1;childLayout=tableLayout;fixedRows=1;rowLines=0;fontStyle=1;align=center;resizeLast=1;labelBackgroundColor=#CCCCCC;labelBorderColor=#1A1A1A;fontFamily=Helvetica;fontSize=12;fontColor=#1A1A1A;strokeColor=#666666;fillColor=#f5f5f5;html=1;" vertex="1" parent="1">
                    <mxGeometry x="115" y="300" width="170" height="240" as="geometry"/>
                </mxCell>
                <mxCell id="95" value="" style="shape=partialRectangle;collapsible=0;dropTarget=0;pointerEvents=0;fillColor=none;top=0;left=0;bottom=1;right=0;points=[[0,0.5],[1,0.5]];portConstraint=eastwest;labelBackgroundColor=#CCCCCC;labelBorderColor=#1A1A1A;fontFamily=Helvetica;fontSize=12;fontColor=#1A1A1A;strokeColor=#666666;html=1;" vertex="1" parent="94">
                    <mxGeometry y="30" width="170" height="20" as="geometry"/>
                </mxCell>
                <mxCell id="96" value="PK" style="shape=partialRectangle;connectable=0;fillColor=none;top=0;left=0;bottom=0;right=0;fontStyle=1;overflow=hidden;labelBackgroundColor=#CCCCCC;labelBorderColor=#1A1A1A;fontFamily=Helvetica;fontSize=12;fontColor=#1A1A1A;strokeColor=#666666;html=1;" vertex="1" parent="95">
                    <mxGeometry width="30" height="20" as="geometry">
                        <mxRectangle width="30" height="20" as="alternateBounds"/>
                    </mxGeometry>
                </mxCell>
                <mxCell id="97" value="Uni" style="shape=partialRectangle;connectable=0;fillColor=none;top=0;left=0;bottom=0;right=0;align=left;spacingLeft=6;fontStyle=5;overflow=hidden;labelBackgroundColor=#CCCCCC;labelBorderColor=#1A1A1A;fontFamily=Helvetica;fontSize=12;fontColor=#1A1A1A;strokeColor=#666666;html=1;" vertex="1" parent="95">
                    <mxGeometry x="30" width="140" height="20" as="geometry">
                        <mxRectangle width="140" height="20" as="alternateBounds"/>
                    </mxGeometry>
                </mxCell>
                <mxCell id="98" value="" style="shape=partialRectangle;collapsible=0;dropTarget=0;pointerEvents=0;fillColor=none;top=0;left=0;bottom=0;right=0;points=[[0,0.5],[1,0.5]];portConstraint=eastwest;labelBackgroundColor=#CCCCCC;labelBorderColor=#1A1A1A;fontFamily=Helvetica;fontSize=12;fontColor=#1A1A1A;strokeColor=#666666;html=1;" vertex="1" parent="94">
                    <mxGeometry y="50" width="170" height="30" as="geometry"/>
                </mxCell>
                <mxCell id="99" value="" style="shape=partialRectangle;connectable=0;fillColor=none;top=0;left=0;bottom=0;right=0;editable=1;overflow=hidden;labelBackgroundColor=#CCCCCC;labelBorderColor=#1A1A1A;fontFamily=Helvetica;fontSize=12;fontColor=#1A1A1A;strokeColor=#666666;html=1;" vertex="1" parent="98">
                    <mxGeometry width="30" height="30" as="geometry">
                        <mxRectangle width="30" height="30" as="alternateBounds"/>
                    </mxGeometry>
                </mxCell>
                <mxCell id="100" value="content" style="shape=partialRectangle;connectable=0;fillColor=none;top=0;left=0;bottom=0;right=0;align=left;spacingLeft=6;overflow=hidden;labelBackgroundColor=#CCCCCC;labelBorderColor=#1A1A1A;fontFamily=Helvetica;fontSize=12;fontColor=#1A1A1A;strokeColor=#666666;html=1;" vertex="1" parent="98">
                    <mxGeometry x="30" width="140" height="30" as="geometry">
                        <mxRectangle width="140" height="30" as="alternateBounds"/>
                    </mxGeometry>
                </mxCell>
                <mxCell id="101" value="" style="shape=partialRectangle;collapsible=0;dropTarget=0;pointerEvents=0;fillColor=none;top=0;left=0;bottom=0;right=0;points=[[0,0.5],[1,0.5]];portConstraint=eastwest;labelBackgroundColor=#CCCCCC;labelBorderColor=#1A1A1A;fontFamily=Helvetica;fontSize=12;fontColor=#1A1A1A;strokeColor=#666666;html=1;" vertex="1" parent="94">
                    <mxGeometry y="80" width="170" height="100" as="geometry"/>
                </mxCell>
                <mxCell id="102" value="" style="shape=partialRectangle;connectable=0;fillColor=none;top=0;left=0;bottom=0;right=0;editable=1;overflow=hidden;labelBackgroundColor=#CCCCCC;labelBorderColor=#1A1A1A;fontFamily=Helvetica;fontSize=12;fontColor=#1A1A1A;strokeColor=#666666;html=1;" vertex="1" parent="101">
                    <mxGeometry width="30" height="100" as="geometry">
                        <mxRectangle width="30" height="100" as="alternateBounds"/>
                    </mxGeometry>
                </mxCell>
                <mxCell id="103" value="user_id" style="shape=partialRectangle;connectable=0;fillColor=none;top=0;left=0;bottom=0;right=0;align=left;spacingLeft=6;overflow=hidden;labelBackgroundColor=#CCCCCC;labelBorderColor=#1A1A1A;fontFamily=Helvetica;fontSize=12;fontColor=#1A1A1A;strokeColor=#666666;html=1;" vertex="1" parent="101">
                    <mxGeometry x="30" width="140" height="100" as="geometry">
                        <mxRectangle width="140" height="100" as="alternateBounds"/>
                    </mxGeometry>
                </mxCell>
                <mxCell id="104" value="" style="shape=partialRectangle;collapsible=0;dropTarget=0;pointerEvents=0;fillColor=none;top=0;left=0;bottom=0;right=0;points=[[0,0.5],[1,0.5]];portConstraint=eastwest;labelBackgroundColor=#CCCCCC;labelBorderColor=#1A1A1A;fontFamily=Helvetica;fontSize=12;fontColor=#1A1A1A;strokeColor=#666666;html=1;" vertex="1" parent="94">
                    <mxGeometry y="180" width="170" height="60" as="geometry"/>
                </mxCell>
                <mxCell id="105" value="" style="shape=partialRectangle;connectable=0;fillColor=none;top=0;left=0;bottom=0;right=0;editable=1;overflow=hidden;labelBackgroundColor=#CCCCCC;labelBorderColor=#1A1A1A;fontFamily=Helvetica;fontSize=12;fontColor=#1A1A1A;strokeColor=#666666;html=1;" vertex="1" parent="104">
                    <mxGeometry width="30" height="60" as="geometry">
                        <mxRectangle width="30" height="60" as="alternateBounds"/>
                    </mxGeometry>
                </mxCell>
                <mxCell id="106" value="kid_id" style="shape=partialRectangle;connectable=0;fillColor=none;top=0;left=0;bottom=0;right=0;align=left;spacingLeft=6;overflow=hidden;labelBackgroundColor=#CCCCCC;labelBorderColor=#1A1A1A;fontFamily=Helvetica;fontSize=12;fontColor=#1A1A1A;strokeColor=#666666;html=1;" vertex="1" parent="104">
                    <mxGeometry x="30" width="140" height="60" as="geometry">
                        <mxRectangle width="140" height="60" as="alternateBounds"/>
                    </mxGeometry>
                </mxCell>
                <mxCell id="119" style="edgeStyle=none;html=1;exitX=0.75;exitY=0;exitDx=0;exitDy=0;entryX=0.729;entryY=0.046;entryDx=0;entryDy=0;entryPerimeter=0;fontFamily=Helvetica;fontSize=12;fontColor=#1A1A1A;" edge="1" parent="94" source="94" target="95">
                    <mxGeometry relative="1" as="geometry"/>
                </mxCell>
                <mxCell id="112" value="" style="endArrow=none;html=1;fontSize=10;fontColor=#1A1A1A;" edge="1" parent="1" target="94">
                    <mxGeometry width="50" height="50" relative="1" as="geometry">
                        <mxPoint x="240" y="310" as="sourcePoint"/>
                        <mxPoint x="320" y="290" as="targetPoint"/>
                        <Array as="points"/>
                    </mxGeometry>
                </mxCell>
                <mxCell id="114" value="date" style="text;strokeColor=none;fillColor=none;spacingLeft=4;spacingRight=4;overflow=hidden;rotatable=0;points=[[0,0.5],[1,0.5]];portConstraint=eastwest;fontSize=12;labelBackgroundColor=#CCCCCC;labelBorderColor=#1A1A1A;fontFamily=Helvetica;fontColor=#1A1A1A;html=1;" vertex="1" parent="1">
                    <mxGeometry x="150" y="460" width="60" height="30" as="geometry"/>
                </mxCell>
                <mxCell id="117" value="" style="edgeStyle=none;html=1;fontFamily=Helvetica;fontSize=12;fontColor=#1A1A1A;" edge="1" parent="1" source="116" target="63">
                    <mxGeometry relative="1" as="geometry"/>
                </mxCell>
                <mxCell id="116" value="password_digest" style="text;strokeColor=none;fillColor=none;spacingLeft=4;spacingRight=4;overflow=hidden;rotatable=0;points=[[0,0.5],[1,0.5]];portConstraint=eastwest;fontSize=12;labelBackgroundColor=#CCCCCC;labelBorderColor=#1A1A1A;fontFamily=Helvetica;fontColor=#1A1A1A;html=1;" vertex="1" parent="1">
                    <mxGeometry x="130" y="190" width="120" height="30" as="geometry"/>
                </mxCell>
            </root>
        </mxGraphModel>
    </diagram>
    <diagram id="SjrSYpjQ3CcY3f4m1VKY" name="ページ2">
        <mxGraphModel dx="471" dy="470" grid="1" gridSize="10" guides="1" tooltips="1" connect="1" arrows="1" fold="1" page="1" pageScale="1" pageWidth="1169" pageHeight="827" background="#1A1A1A" math="0" shadow="0">
            <root>
                <mxCell id="K3DedOTArw7rSLO7V-P2-0"/>
                <mxCell id="K3DedOTArw7rSLO7V-P2-1" parent="K3DedOTArw7rSLO7V-P2-0"/>
                <mxCell id="K3DedOTArw7rSLO7V-P2-25" value="" style="edgeStyle=none;html=1;labelBackgroundColor=#2A2A2A;labelBorderColor=#1A1A1A;fontFamily=Helvetica;fontSize=12;fontColor=#1A1A1A;entryX=0.638;entryY=-0.073;entryDx=0;entryDy=0;entryPerimeter=0;" edge="1" parent="K3DedOTArw7rSLO7V-P2-1" source="K3DedOTArw7rSLO7V-P2-2" target="K3DedOTArw7rSLO7V-P2-19">
                    <mxGeometry relative="1" as="geometry"/>
                </mxCell>
                <mxCell id="K3DedOTArw7rSLO7V-P2-2" value="Sign in" style="whiteSpace=wrap;html=1;align=center;labelBackgroundColor=#99CCFF;labelBorderColor=#1A1A1A;fontFamily=Helvetica;fontSize=12;fontColor=#1A1A1A;strokeColor=#666666;fillColor=#f5f5f5;" vertex="1" parent="K3DedOTArw7rSLO7V-P2-1">
                    <mxGeometry x="270" y="50" width="100" height="40" as="geometry"/>
                </mxCell>
                <mxCell id="K3DedOTArw7rSLO7V-P2-3" value="Top" style="whiteSpace=wrap;html=1;align=center;labelBackgroundColor=#99CCFF;labelBorderColor=#1A1A1A;fontFamily=Helvetica;fontSize=12;fontColor=#1A1A1A;strokeColor=#666666;fillColor=#f5f5f5;" vertex="1" parent="K3DedOTArw7rSLO7V-P2-1">
                    <mxGeometry x="170" y="50" width="100" height="40" as="geometry"/>
                </mxCell>
                <mxCell id="K3DedOTArw7rSLO7V-P2-26" style="edgeStyle=none;html=1;exitX=0.5;exitY=1;exitDx=0;exitDy=0;labelBackgroundColor=#2A2A2A;labelBorderColor=#1A1A1A;fontFamily=Helvetica;fontSize=12;fontColor=#1A1A1A;" edge="1" parent="K3DedOTArw7rSLO7V-P2-1" source="K3DedOTArw7rSLO7V-P2-4">
                    <mxGeometry relative="1" as="geometry">
                        <mxPoint x="420" y="270" as="targetPoint"/>
                    </mxGeometry>
                </mxCell>
                <mxCell id="K3DedOTArw7rSLO7V-P2-4" value="Login" style="whiteSpace=wrap;html=1;align=center;labelBackgroundColor=#99CCFF;labelBorderColor=#1A1A1A;fontFamily=Helvetica;fontSize=12;fontColor=#1A1A1A;strokeColor=#666666;fillColor=#f5f5f5;" vertex="1" parent="K3DedOTArw7rSLO7V-P2-1">
                    <mxGeometry x="370" y="50" width="100" height="40" as="geometry"/>
                </mxCell>
                <mxCell id="K3DedOTArw7rSLO7V-P2-9" value="" style="line;strokeWidth=1;rotatable=0;dashed=0;labelPosition=right;align=left;verticalAlign=middle;spacingTop=0;spacingLeft=6;points=[];portConstraint=eastwest;labelBackgroundColor=#99CCFF;labelBorderColor=#1A1A1A;fontFamily=Helvetica;fontSize=12;fontColor=#1A1A1A;fillColor=#f5f5f5;html=1;" vertex="1" parent="K3DedOTArw7rSLO7V-P2-1">
                    <mxGeometry x="170" y="50" width="60" as="geometry"/>
                </mxCell>
                <mxCell id="K3DedOTArw7rSLO7V-P2-10" value="ログイン前" style="text;html=1;align=center;verticalAlign=middle;resizable=0;points=[];autosize=1;strokeColor=#666666;fillColor=#f5f5f5;fontSize=12;fontFamily=Helvetica;fontColor=#333333;" vertex="1" parent="K3DedOTArw7rSLO7V-P2-1">
                    <mxGeometry x="170" y="30" width="70" height="20" as="geometry"/>
                </mxCell>
                <mxCell id="K3DedOTArw7rSLO7V-P2-33" style="edgeStyle=none;html=1;exitX=0.5;exitY=1;exitDx=0;exitDy=0;labelBackgroundColor=#2A2A2A;labelBorderColor=#1A1A1A;fontFamily=Helvetica;fontSize=12;fontColor=#1A1A1A;" edge="1" parent="K3DedOTArw7rSLO7V-P2-1" source="K3DedOTArw7rSLO7V-P2-14">
                    <mxGeometry relative="1" as="geometry">
                        <mxPoint x="560" y="90" as="targetPoint"/>
                    </mxGeometry>
                </mxCell>
                <mxCell id="K3DedOTArw7rSLO7V-P2-14" value="ログアウト" style="whiteSpace=wrap;html=1;align=center;labelBackgroundColor=#FFCCFF;labelBorderColor=#1A1A1A;fontFamily=Helvetica;fontSize=12;fontColor=#1A1A1A;strokeColor=#666666;fillColor=#f5f5f5;" vertex="1" parent="K3DedOTArw7rSLO7V-P2-1">
                    <mxGeometry x="521" y="50" width="100" height="40" as="geometry"/>
                </mxCell>
                <mxCell id="K3DedOTArw7rSLO7V-P2-15" value="ユーザー詳細画面" style="whiteSpace=wrap;html=1;align=center;labelBackgroundColor=#FFCCFF;labelBorderColor=#1A1A1A;fontFamily=Helvetica;fontSize=12;fontColor=#1A1A1A;strokeColor=#666666;fillColor=#f5f5f5;" vertex="1" parent="K3DedOTArw7rSLO7V-P2-1">
                    <mxGeometry x="620" y="50" width="100" height="40" as="geometry"/>
                </mxCell>
                <mxCell id="K3DedOTArw7rSLO7V-P2-16" value="管理者画面へ" style="whiteSpace=wrap;html=1;align=center;labelBackgroundColor=#FFCCFF;labelBorderColor=#1A1A1A;fontFamily=Helvetica;fontSize=12;fontColor=#1A1A1A;strokeColor=#666666;fillColor=#f5f5f5;" vertex="1" parent="K3DedOTArw7rSLO7V-P2-1">
                    <mxGeometry x="820" y="50" width="100" height="40" as="geometry"/>
                </mxCell>
                <mxCell id="K3DedOTArw7rSLO7V-P2-18" value="ログイン後" style="text;html=1;align=center;verticalAlign=middle;resizable=0;points=[];autosize=1;strokeColor=#666666;fillColor=#f5f5f5;fontSize=12;fontFamily=Helvetica;fontColor=#333333;" vertex="1" parent="K3DedOTArw7rSLO7V-P2-1">
                    <mxGeometry x="520" y="30" width="70" height="20" as="geometry"/>
                </mxCell>
                <mxCell id="K3DedOTArw7rSLO7V-P2-19" value="ユーザーサインイン画面" style="whiteSpace=wrap;html=1;align=center;labelBackgroundColor=#FFFFFF;labelBorderColor=#1A1A1A;fontFamily=Helvetica;fontSize=12;fontColor=#1A1A1A;strokeColor=#666666;fillColor=#f5f5f5;" vertex="1" parent="K3DedOTArw7rSLO7V-P2-1">
                    <mxGeometry x="170" y="150" width="150" height="40" as="geometry"/>
                </mxCell>
                <mxCell id="K3DedOTArw7rSLO7V-P2-20" value="必要事項を入力し登録" style="whiteSpace=wrap;html=1;align=center;labelBackgroundColor=#FFFFFF;labelBorderColor=#1A1A1A;fontFamily=Helvetica;fontSize=12;fillColor=#f5f5f5;fontColor=#333333;strokeColor=#666666;" vertex="1" parent="K3DedOTArw7rSLO7V-P2-1">
                    <mxGeometry x="170" y="180" width="150" height="40" as="geometry"/>
                </mxCell>
                <mxCell id="K3DedOTArw7rSLO7V-P2-21" value="必要事項を入力せず登録" style="whiteSpace=wrap;html=1;align=center;labelBackgroundColor=#FFFFFF;labelBorderColor=#1A1A1A;fontFamily=Helvetica;fontSize=12;fontColor=#1A1A1A;strokeColor=#666666;fillColor=#f5f5f5;" vertex="1" parent="K3DedOTArw7rSLO7V-P2-1">
                    <mxGeometry x="170" y="220" width="150" height="40" as="geometry"/>
                </mxCell>
                <mxCell id="K3DedOTArw7rSLO7V-P2-23" value="" style="edgeStyle=segmentEdgeStyle;endArrow=classic;html=1;labelBorderColor=#1A1A1A;fontFamily=Helvetica;fontSize=12;fontColor=#1A1A1A;entryX=1;entryY=0.5;entryDx=0;entryDy=0;exitX=1;exitY=0.5;exitDx=0;exitDy=0;labelBackgroundColor=#2A2A2A;" edge="1" parent="K3DedOTArw7rSLO7V-P2-1" source="K3DedOTArw7rSLO7V-P2-21" target="K3DedOTArw7rSLO7V-P2-20">
                    <mxGeometry width="50" height="50" relative="1" as="geometry">
                        <mxPoint x="330" y="350" as="sourcePoint"/>
                        <mxPoint x="380" y="300" as="targetPoint"/>
                        <Array as="points">
                            <mxPoint x="380" y="240"/>
                            <mxPoint x="380" y="200"/>
                        </Array>
                    </mxGeometry>
                </mxCell>
                <mxCell id="K3DedOTArw7rSLO7V-P2-27" value="正しい情報でクリック" style="whiteSpace=wrap;html=1;align=center;labelBackgroundColor=#FFFFFF;labelBorderColor=#1A1A1A;fontFamily=Helvetica;fontSize=12;fillColor=#f5f5f5;fontColor=#333333;strokeColor=#666666;" vertex="1" parent="K3DedOTArw7rSLO7V-P2-1">
                    <mxGeometry x="345" y="310" width="150" height="40" as="geometry"/>
                </mxCell>
                <mxCell id="K3DedOTArw7rSLO7V-P2-28" value="ユーザーログイン画面" style="whiteSpace=wrap;html=1;align=center;labelBackgroundColor=#FFFFFF;labelBorderColor=#1A1A1A;fontFamily=Helvetica;fontSize=12;fontColor=#1A1A1A;strokeColor=#666666;fillColor=#f5f5f5;" vertex="1" parent="K3DedOTArw7rSLO7V-P2-1">
                    <mxGeometry x="345" y="270" width="150" height="40" as="geometry"/>
                </mxCell>
                <mxCell id="K3DedOTArw7rSLO7V-P2-29" value="正しくない情報でクリック" style="whiteSpace=wrap;html=1;align=center;labelBackgroundColor=#FFFFFF;labelBorderColor=#1A1A1A;fontFamily=Helvetica;fontSize=12;fontColor=#1A1A1A;strokeColor=#666666;fillColor=#f5f5f5;" vertex="1" parent="K3DedOTArw7rSLO7V-P2-1">
                    <mxGeometry x="345" y="350" width="150" height="40" as="geometry"/>
                </mxCell>
                <mxCell id="K3DedOTArw7rSLO7V-P2-31" value="" style="edgeStyle=segmentEdgeStyle;endArrow=classic;html=1;labelBackgroundColor=#2A2A2A;labelBorderColor=#1A1A1A;fontFamily=Helvetica;fontSize=12;fontColor=#1A1A1A;entryX=1;entryY=0.5;entryDx=0;entryDy=0;exitX=1;exitY=0.25;exitDx=0;exitDy=0;" edge="1" parent="K3DedOTArw7rSLO7V-P2-1" source="K3DedOTArw7rSLO7V-P2-29" target="K3DedOTArw7rSLO7V-P2-27">
                    <mxGeometry width="50" height="50" relative="1" as="geometry">
                        <mxPoint x="510" y="370" as="sourcePoint"/>
                        <mxPoint x="490" y="290" as="targetPoint"/>
                        <Array as="points">
                            <mxPoint x="490" y="360"/>
                            <mxPoint x="490" y="370"/>
                            <mxPoint x="560" y="370"/>
                            <mxPoint x="560" y="330"/>
                        </Array>
                    </mxGeometry>
                </mxCell>
                <mxCell id="K3DedOTArw7rSLO7V-P2-32" value="" style="edgeStyle=segmentEdgeStyle;endArrow=classic;html=1;labelBackgroundColor=#2A2A2A;labelBorderColor=#1A1A1A;fontFamily=Helvetica;fontSize=12;fontColor=#1A1A1A;exitX=0.433;exitY=1.017;exitDx=0;exitDy=0;exitPerimeter=0;entryX=1;entryY=0.5;entryDx=0;entryDy=0;" edge="1" parent="K3DedOTArw7rSLO7V-P2-1" source="K3DedOTArw7rSLO7V-P2-14" target="K3DedOTArw7rSLO7V-P2-28">
                    <mxGeometry width="50" height="50" relative="1" as="geometry">
                        <mxPoint x="560" y="100" as="sourcePoint"/>
                        <mxPoint x="650" y="230" as="targetPoint"/>
                        <Array as="points">
                            <mxPoint x="560" y="91"/>
                            <mxPoint x="560" y="290"/>
                        </Array>
                    </mxGeometry>
                </mxCell>
                <mxCell id="K3DedOTArw7rSLO7V-P2-34" value="管理者画面へ" style="whiteSpace=wrap;html=1;align=center;labelBackgroundColor=#FFCCFF;labelBorderColor=#1A1A1A;fontFamily=Helvetica;fontSize=12;fontColor=#1A1A1A;strokeColor=#666666;fillColor=#f5f5f5;" vertex="1" parent="K3DedOTArw7rSLO7V-P2-1">
                    <mxGeometry x="1069" y="50" width="151" height="40" as="geometry"/>
                </mxCell>
                <mxCell id="K3DedOTArw7rSLO7V-P2-35" value="" style="edgeStyle=segmentEdgeStyle;endArrow=classic;html=1;labelBackgroundColor=#2A2A2A;labelBorderColor=#1A1A1A;fontFamily=Helvetica;fontSize=12;fontColor=#1A1A1A;exitX=1;exitY=0.75;exitDx=0;exitDy=0;entryX=0;entryY=0.75;entryDx=0;entryDy=0;" edge="1" parent="K3DedOTArw7rSLO7V-P2-1" source="K3DedOTArw7rSLO7V-P2-16" target="K3DedOTArw7rSLO7V-P2-34">
                    <mxGeometry width="50" height="50" relative="1" as="geometry">
                        <mxPoint x="900" y="220" as="sourcePoint"/>
                        <mxPoint x="950" y="170" as="targetPoint"/>
                    </mxGeometry>
                </mxCell>
                <mxCell id="K3DedOTArw7rSLO7V-P2-36" value="クラス一覧へ（" style="whiteSpace=wrap;html=1;align=center;labelBackgroundColor=#FFCCFF;labelBorderColor=#1A1A1A;fontFamily=Helvetica;fontSize=12;fontColor=#1A1A1A;strokeColor=#666666;fillColor=#f5f5f5;" vertex="1" parent="K3DedOTArw7rSLO7V-P2-1">
                    <mxGeometry x="720" y="50" width="100" height="40" as="geometry"/>
                </mxCell>
                <mxCell id="K3DedOTArw7rSLO7V-P2-37" value="クラスごとの園児一覧画面" style="whiteSpace=wrap;html=1;align=center;labelBackgroundColor=#FFFFFF;labelBorderColor=#1A1A1A;fontFamily=Helvetica;fontSize=12;fontColor=#1A1A1A;strokeColor=#666666;fillColor=#f5f5f5;" vertex="1" parent="K3DedOTArw7rSLO7V-P2-1">
                    <mxGeometry x="695" y="260" width="150" height="40" as="geometry"/>
                </mxCell>
                <mxCell id="K3DedOTArw7rSLO7V-P2-38" value="" style="edgeStyle=segmentEdgeStyle;endArrow=classic;html=1;labelBackgroundColor=#2A2A2A;labelBorderColor=#1A1A1A;fontFamily=Helvetica;fontSize=12;fontColor=#1A1A1A;exitX=0.386;exitY=1.085;exitDx=0;exitDy=0;exitPerimeter=0;entryX=0.5;entryY=0;entryDx=0;entryDy=0;" edge="1" parent="K3DedOTArw7rSLO7V-P2-1" source="K3DedOTArw7rSLO7V-P2-36" target="K3DedOTArw7rSLO7V-P2-37">
                    <mxGeometry width="50" height="50" relative="1" as="geometry">
                        <mxPoint x="730" y="220" as="sourcePoint"/>
                        <mxPoint x="770" y="250" as="targetPoint"/>
                        <Array as="points">
                            <mxPoint x="770" y="93"/>
                        </Array>
                    </mxGeometry>
                </mxCell>
                <mxCell id="K3DedOTArw7rSLO7V-P2-39" value="出席・欠席を確認" style="whiteSpace=wrap;html=1;align=center;labelBackgroundColor=#FFFFFF;labelBorderColor=#1A1A1A;fontFamily=Helvetica;fontSize=12;fontColor=#1A1A1A;strokeColor=#666666;fillColor=#f5f5f5;" vertex="1" parent="K3DedOTArw7rSLO7V-P2-1">
                    <mxGeometry x="695" y="300" width="150" height="40" as="geometry"/>
                </mxCell>
                <mxCell id="K3DedOTArw7rSLO7V-P2-42" value="出席か欠席か選択" style="whiteSpace=wrap;html=1;align=center;labelBackgroundColor=#FFFFFF;labelBorderColor=#1A1A1A;fontFamily=Helvetica;fontSize=12;fontColor=#1A1A1A;strokeColor=#666666;fillColor=#f5f5f5;" vertex="1" parent="K3DedOTArw7rSLO7V-P2-1">
                    <mxGeometry x="545" y="434" width="150" height="40" as="geometry"/>
                </mxCell>
                <mxCell id="K3DedOTArw7rSLO7V-P2-43" value="連絡事項ある場合は入力" style="whiteSpace=wrap;html=1;align=center;labelBackgroundColor=#FFFFFF;labelBorderColor=#1A1A1A;fontFamily=Helvetica;fontSize=12;fontColor=#1A1A1A;strokeColor=#666666;fillColor=#f5f5f5;" vertex="1" parent="K3DedOTArw7rSLO7V-P2-1">
                    <mxGeometry x="545" y="474" width="150" height="40" as="geometry"/>
                </mxCell>
                <mxCell id="K3DedOTArw7rSLO7V-P2-44" value="" style="edgeStyle=segmentEdgeStyle;endArrow=classic;html=1;labelBackgroundColor=#2A2A2A;labelBorderColor=#1A1A1A;fontFamily=Helvetica;fontSize=12;fontColor=#1A1A1A;startArrow=none;" edge="1" parent="K3DedOTArw7rSLO7V-P2-1" source="K3DedOTArw7rSLO7V-P2-41">
                    <mxGeometry width="50" height="50" relative="1" as="geometry">
                        <mxPoint x="550" y="400" as="sourcePoint"/>
                        <mxPoint x="650" y="390" as="targetPoint"/>
                    </mxGeometry>
                </mxCell>
                <mxCell id="K3DedOTArw7rSLO7V-P2-41" value="ユーザーの子供詳細画面" style="whiteSpace=wrap;html=1;align=center;labelBackgroundColor=#FFFFFF;labelBorderColor=#1A1A1A;fontFamily=Helvetica;fontSize=12;fontColor=#1A1A1A;strokeColor=#666666;fillColor=#f5f5f5;" vertex="1" parent="K3DedOTArw7rSLO7V-P2-1">
                    <mxGeometry x="545" y="394" width="150" height="40" as="geometry"/>
                </mxCell>
                <mxCell id="K3DedOTArw7rSLO7V-P2-45" value="" style="edgeStyle=segmentEdgeStyle;endArrow=none;html=1;labelBackgroundColor=#2A2A2A;labelBorderColor=#1A1A1A;fontFamily=Helvetica;fontSize=12;fontColor=#1A1A1A;" edge="1" parent="K3DedOTArw7rSLO7V-P2-1" target="K3DedOTArw7rSLO7V-P2-41">
                    <mxGeometry width="50" height="50" relative="1" as="geometry">
                        <mxPoint x="550" y="400" as="sourcePoint"/>
                        <mxPoint x="650" y="390" as="targetPoint"/>
                    </mxGeometry>
                </mxCell>
                <mxCell id="K3DedOTArw7rSLO7V-P2-46" value="" style="edgeStyle=segmentEdgeStyle;endArrow=classic;html=1;labelBackgroundColor=#2A2A2A;labelBorderColor=#1A1A1A;fontFamily=Helvetica;fontSize=12;fontColor=#1A1A1A;" edge="1" parent="K3DedOTArw7rSLO7V-P2-1">
                    <mxGeometry width="50" height="50" relative="1" as="geometry">
                        <mxPoint x="690" y="320" as="sourcePoint"/>
                        <mxPoint x="630" y="390" as="targetPoint"/>
                        <Array as="points">
                            <mxPoint x="630" y="320"/>
                        </Array>
                    </mxGeometry>
                </mxCell>
                <mxCell id="K3DedOTArw7rSLO7V-P2-47" value="" style="edgeStyle=segmentEdgeStyle;endArrow=classic;html=1;labelBackgroundColor=#2A2A2A;labelBorderColor=#1A1A1A;fontFamily=Helvetica;fontSize=12;fontColor=#1A1A1A;exitX=0.25;exitY=1;exitDx=0;exitDy=0;" edge="1" parent="K3DedOTArw7rSLO7V-P2-1" source="K3DedOTArw7rSLO7V-P2-15">
                    <mxGeometry width="50" height="50" relative="1" as="geometry">
                        <mxPoint x="640" y="280" as="sourcePoint"/>
                        <mxPoint x="600" y="390" as="targetPoint"/>
                        <Array as="points">
                            <mxPoint x="650" y="90"/>
                            <mxPoint x="650" y="130"/>
                            <mxPoint x="600" y="130"/>
                        </Array>
                    </mxGeometry>
                </mxCell>
                <mxCell id="K3DedOTArw7rSLO7V-P2-48" value="" style="edgeStyle=segmentEdgeStyle;endArrow=classic;html=1;labelBackgroundColor=#2A2A2A;labelBorderColor=#1A1A1A;fontFamily=Helvetica;fontSize=12;fontColor=#1A1A1A;" edge="1" parent="K3DedOTArw7rSLO7V-P2-1">
                    <mxGeometry width="50" height="50" relative="1" as="geometry">
                        <mxPoint x="695" y="480" as="sourcePoint"/>
                        <mxPoint x="850" y="290" as="targetPoint"/>
                        <Array as="points">
                            <mxPoint x="895" y="480"/>
                            <mxPoint x="895" y="290"/>
                        </Array>
                    </mxGeometry>
                </mxCell>
                <mxCell id="K3DedOTArw7rSLO7V-P2-49" value="rails_admin(gem)を使用" style="whiteSpace=wrap;html=1;align=center;labelBackgroundColor=#FFFFFF;labelBorderColor=#1A1A1A;fontFamily=Helvetica;fontSize=12;fontColor=#1A1A1A;strokeColor=#666666;fillColor=#f5f5f5;" vertex="1" parent="K3DedOTArw7rSLO7V-P2-1">
                    <mxGeometry x="1069" y="90" width="150" height="40" as="geometry"/>
                </mxCell>
            </root>
        </mxGraphModel>
    </diagram>
</mxfile>